<?xml version="1.0" encoding="UTF-8"?>
<svg id="Camada_1" data-name="Camada 1" xmlns="http://www.w3.org/2000/svg" viewBox="0 0 250 250">
  <defs>
    <style>
      .cls-1 {
        fill: #fff;
        stroke-width: 0px;
      }
    </style>
  </defs>
  <path class="cls-1" d="m147,65.58c20.64,0,37.42,16.79,37.42,37.42v44c0,20.64-16.79,37.42-37.42,37.42h-44c-20.64,0-37.42-16.79-37.42-37.42v-44c0-20.64,16.79-37.42,37.42-37.42h44m0-12.58h-44c-27.61,0-50,22.39-50,50v44c0,27.61,22.39,50,50,50h44c27.61,0,50-22.39,50-50v-44c0-27.61-22.39-50-50-50h0Z"/>
  <path class="cls-1" d="m125,94.82c16.64,0,30.18,13.54,30.18,30.18s-13.54,30.18-30.18,30.18-30.18-13.54-30.18-30.18,13.54-30.18,30.18-30.18m0-12.58c-23.62,0-42.76,19.14-42.76,42.76s19.14,42.76,42.76,42.76,42.76-19.14,42.76-42.76-19.14-42.76-42.76-42.76h0Z"/>
  <circle class="cls-1" cx="164.45" cy="85.55" r="8.55"/>
</svg>