<?xml version="1.0" encoding="UTF-8"?>
<svg id="Camada_1" data-name="Camada 1" xmlns="http://www.w3.org/2000/svg" xmlns:xlink="http://www.w3.org/1999/xlink" viewBox="0 0 235 236">
  <defs>
    <style>
      .cls-1 {
        fill: url(#Gradiente_sem_nome_6);
        stroke-width: 0px;
      }
    </style>
    <linearGradient id="Gradiente_sem_nome_6" data-name="Gradiente sem nome 6" x1="2.62" y1="18.78" x2="183.1" y2="195.3" gradientUnits="userSpaceOnUse">
      <stop offset=".17" stop-color="#ff3939"/>
      <stop offset="1" stop-color="#f55"/>
    </linearGradient>
  </defs>
  <path class="cls-1" d="m114.61,14.78c-4.42-2.24-12.48-4.61-35.41,2.77-20.17,6.49-30.25,9.74-37.48,17.38-9.94,10.49-5.34,15.99-17.5,44.75-9.93,23.49-15.92,26.72-13.78,36.09,2.95,12.94,18.13,13.23,22.38,28.99,3.29,12.18-2.04,17.51-.27,32.6,0,0,0,0,0,0,2.03,14.78,8.97,27.24,14.02,33.13,4.63,5.41,20.26,9.36,51.34,17.04,18.54,4.58,27.87,6.87,30.49,6.53,28.6-3.68,49.08-37.87,50.89-40.46,5.49-7.83,7.29-12.71,16.15-24.04,15.37-19.65,20.76-18.73,26.6-29.22,10.79-19.39,6.92-48.72-8.13-63.71-1.89-1.88-3.6-3.15-5.31-4.08-11.31-6.15-20.93-8.23-25.64-9.04-28.86-4.96-55-35.55-57.69-38.75-3.52-4.2-5.67-7.47-10.66-10Z"/>
</svg>