<?xml version="1.0" encoding="UTF-8"?>
<svg id="Camada_1" data-name="Camada 1" xmlns="http://www.w3.org/2000/svg" xmlns:xlink="http://www.w3.org/1999/xlink" viewBox="0 0 235 236">
  <defs>
    <style>
      .cls-1, .cls-2 {
        stroke-width: 0px;
      }

      .cls-2 {
        fill: url(#Gradiente_sem_nome_6);
      }
    </style>
    <linearGradient id="Gradiente_sem_nome_6" data-name="Gradiente sem nome 6" x1="-5.53" y1="7.97" x2="184.97" y2="194.29" gradientUnits="userSpaceOnUse">
      <stop offset=".17" stop-color="#ff3939"/>
      <stop offset="1" stop-color="#f55"/>
    </linearGradient>
  </defs>
  <g>
    <path class="cls-2" d="m126.84,234.93c-3.47,0-14.14-2.61-31.81-6.93-30.97-7.57-49.67-12.14-54.51-17.74-5.92-6.84-12.78-20.19-14.79-34.59-.87-7.36-.11-12.38.62-17.24.81-5.36,1.57-10.42-.36-17.48-2.47-9.03-8.33-13.54-13.5-17.52-4.66-3.58-9.06-6.97-10.5-13.19-1.34-5.83.43-9.13,4.72-17.11,2.53-4.7,5.99-11.13,10-20.51,5.91-13.82,8.16-22.66,9.81-29.11,1.99-7.82,3.09-12.13,8.75-18.04,7.57-7.9,18.32-11.33,39.75-18.15,10.95-3.49,19.86-5.25,26.49-5.25,5.51,0,8.61,1.2,10.7,2.25,4.34,2.18,6.6,4.92,9.47,8.39.52.63,1.06,1.28,1.63,1.95,3.12,3.69,31.43,36.18,62.5,41.46,9.26,1.57,18.41,4.76,27.18,9.47,1.86,1,3.59,2.32,5.45,4.15,15.99,15.75,19.9,46.11,8.54,66.3-2.94,5.23-5.82,7.74-9.79,11.22-4.25,3.72-10.08,8.81-18.64,19.64-5.95,7.52-8.92,12.33-11.79,16.99-1.73,2.8-3.36,5.45-5.56,8.55-.13.18-.35.52-.65.98-16.13,24.45-35.02,39.18-53.2,41.5-.14.02-.31.03-.5.03Z"/>
    <path class="cls-1" d="m101.52,3.13c5.29,0,8.24,1.14,10.22,2.14,4.14,2.08,6.23,4.61,9.12,8.11.52.63,1.06,1.29,1.64,1.96,3.15,3.72,31.7,36.48,63.14,41.83,9.15,1.55,18.18,4.7,26.85,9.36,1.77.95,3.42,2.21,5.21,3.97,7.38,7.27,12.53,18.5,14.13,30.8,1.61,12.36-.49,24.83-5.78,34.21-2.85,5.07-5.52,7.4-9.57,10.94-4.28,3.74-10.15,8.87-18.78,19.78-5.99,7.57-8.97,12.41-11.86,17.09-1.72,2.79-3.34,5.42-5.53,8.5-.14.19-.36.53-.67,1.01-15.96,24.18-34.58,38.75-52.44,41.03-.06,0-.18.02-.37.02-3.34,0-14.56-2.75-31.56-6.9-30.76-7.52-49.33-12.06-53.95-17.4-5.81-6.72-12.56-19.85-14.53-34-.85-7.24-.11-12.19.62-16.97.83-5.47,1.61-10.64-.38-17.92-2.56-9.38-8.57-14-13.88-18.08-4.7-3.62-8.76-6.74-10.11-12.59-1.25-5.43.47-8.63,4.62-16.37,2.54-4.72,6.01-11.18,10.04-20.6,5.94-13.9,8.21-22.78,9.86-29.27,2.01-7.9,3.02-11.86,8.49-17.56,7.38-7.71,18.05-11.11,39.31-17.87,10.84-3.45,19.64-5.2,26.15-5.2m0-2.13c-5.84,0-14.24,1.3-26.8,5.3-21.63,6.89-32.44,10.33-40.2,18.43-10.66,11.12-5.73,16.96-18.77,47.47C5.09,97.11-1.33,100.54.96,110.48c3.16,13.72,19.44,14.03,24.01,30.75,3.53,12.92-2.18,18.57-.29,34.58,0,0,0,0,0,0,2.18,15.68,9.63,28.89,15.03,35.15,4.96,5.74,21.73,9.93,55.06,18.08,18.6,4.55,28.55,6.96,32.07,6.96.24,0,.46-.01.64-.03,30.67-3.9,52.64-40.17,54.59-42.91,5.89-8.3,7.82-13.49,17.32-25.49,16.49-20.84,22.27-19.86,28.53-30.99,11.57-20.56,7.42-51.67-8.72-67.58-2.03-2-3.86-3.35-5.69-4.33-12.13-6.52-22.45-8.73-27.5-9.59-30.95-5.26-58.99-37.71-61.87-41.1-3.78-4.46-6.09-7.92-11.43-10.61-2.32-1.17-5.58-2.36-11.18-2.36h0Z"/>
  </g>
  <path class="cls-1" d="m108.32,9.81c1.52.63,2.57,1.05,3.75,2,4.08,3.31,3.34,7.78,5.44,12.19,1.46,3.06,5.3,5.37,13,10,11.48,6.9,12.82,5.29,18,10,5.27,4.79,5.24,7.69,10.21,9.83,3.4,1.47,5.04.68,11.56,1.76,3.24.54,7.37,1.44,13.1,3.15,5.89,1.76,15.28,4.53,25.74,10.61,8.16,4.74,12.24,7.11,15.39,11.64,5.38,7.74,5.18,16.09,4.99,24.42-.28,12.06-4.46,21.45-7.51,24.4-2.44,2.36-4.01,2.66-7.51,6.36-4.4,4.65-4.17,6.56-8.4,12.48-4.55,6.37-6.11,5.98-12.82,14.39-3.67,4.59-3.7,5.34-6.66,9.19-7.55,9.84-11.05,9.84-17.16,16.97-10.37,12.1-5.37,18.02-15.02,25.46-5.19,4-8.76,5.13-16.09,8.49-11.16,5.12-10.03,6.62-13.82,6.84-6.42.37-7.85-4.03-18-8-4.23-1.66-9.82-2.44-21-4-15.58-2.18-15.84-1-21-3-5.35-2.07-9.57-5.38-18-12-6.27-4.93-9.41-7.39-11-10-5.64-9.27-3.51-20.35-3-23,.98-5.08,1.92-4.32,3-10,.91-4.75,2.32-12.14-1-20-2.26-5.36-5.87-8.91-7-10-2.21-2.13-2.51-1.78-5-4-3.06-2.73-7.66-6.82-9-13-1.05-4.8.3-8.89,1-11,1.86-5.64,4.09-5.45,6-11,2.02-5.85-.25-6.66,2-12,2.07-4.93,4.56-5.57,4.64-9.5.04-2.1-.54-2.79-.89-7.02-.12-1.39-.14-3.05.03-5.17.26-3.16.61-6.96,2.65-11.29,1.95-4.14,4.97-7.78,6.44-9.55,1.61-1.94,2.67-2.96,4.29-5.3,1.34-1.95,1.39-2.58,2.3-3.75,2.04-2.63,4.78-3.75,6.55-4.43,8.46-3.25,21-6.65,28.65-9.25,9.2-3.12,11.66-5.19,18.35-5.75,2.79-.23,7.65-.32,12.82,1.81Zm-6.66-7.28c-6.55,0-12.77,1.34-17.71,2.62-3.82.99-6.62,1.91-8.75,2.62-16.93,5.62-25.4,8.43-29.12,10.68-4.74,2.86-10.89,6.56-15.33,13.78-3.82,6.21-3.1,9.81-7.02,22.47-1.51,4.87-3.59,10.77-6.73,18.11C6.49,97.4.15,100.78,2.41,110.59c3.12,13.55,19.19,13.85,23.7,30.35,3.48,12.75-2.15,18.33-.29,34.13,0,0,0,0,0,0,2.15,15.47,9.5,28.52,14.84,34.69,4.9,5.66,21.45,9.8,54.35,17.84,18.36,4.49,28.18,6.87,31.65,6.87.24,0,.45-.01.63-.03,30.27-3.85,51.96-39.65,53.88-42.36,5.81-8.19,7.71-13.31,17.09-25.16,16.27-20.57,21.98-19.61,28.16-30.59,11.42-20.3,7.33-51-8.61-66.7-2-1.97-3.81-3.3-5.62-4.27-11.98-6.43-22.16-8.61-27.15-9.46-30.55-5.19-58.23-37.22-61.07-40.57-3.73-4.4-6.01-7.82-11.28-10.47-2.29-1.15-5.51-2.33-11.04-2.33Z"/>
</svg>