<?xml version="1.0" encoding="UTF-8"?>
<svg id="Camada_1" data-name="Camada 1" xmlns="http://www.w3.org/2000/svg" viewBox="0 0 821 143">
  <defs>
    <style>
      .cls-1 {
        fill: #4b334a;
        stroke-width: 0px;
      }
    </style>
  </defs>
  <path class="cls-1" d="m47.03,73.46c4.67,1.42,8.51,1.9,11.12,2.08,4.55.31,6.15.25,11,1,5.1.79,5.42,1.39,7.85,1.46,2.87.08,7.08-.63,12.36-4.54v23.85c0,9.18-1.85,17.2-5.54,24.06-3.7,6.86-8.86,12.18-15.5,15.96s-14.43,5.67-23.39,5.67-16.9-1.78-23.64-5.33c-6.75-3.55-11.98-8.57-15.71-15.03-3.72-6.47-5.58-14.01-5.58-22.63v-36.03c0-9.18,1.85-17.19,5.54-24.02,3.7-6.83,8.86-12.14,15.5-15.92s14.43-5.67,23.39-5.67c7.39,0,14.12,1.51,20.2,4.54,6.07,3.02,11.18,7.25,15.33,12.68,4.14,5.43,6.94,11.79,8.4,19.06h-24.86c.71-.8,2.93-3.51,2.66-7.11-.07-.9-.37-2.87-3-6-1.32-1.58-6.08-7.18-14-8-5.69-.59-9.84,1.63-15.15,4.46-3.34,1.79-7.81,4.17-11.53,9.01-3.13,4.07-4.24,8.71-6.47,17.99-1.71,7.12-2.73,11.36-2.85,17.54-.15,7.7,1.18,13.52,2,17,1.73,7.34,2.59,11.01,5,14,6.26,7.79,17.5,8.22,23.85,8.46,4.58.17,11.01.42,18-3,8.7-4.25,17.35-13.72,15-19-.35-.79-2.09-4.03-11.49-4.37h-18.48c.91-2.49,2.06-6.55,1.97-11.63-.08-4.53-1.1-8.17-1.97-10.54Z"/>
  <path class="cls-1" d="m112.04,141.74c.2-2.7.52-6.77.96-11.74.66-7.43.93-9.45,1.15-12.46.46-6.29.27-10.79-.15-19.54-.62-13.17-1.42-15.7-1.85-26.46-.29-7.28-.22-13.21-.11-16.98h24.69c-.44,5.24-.89,13.21-.58,22.98.32,9.91,1.06,10.11,1,17-.11,13.81-3.12,17.16-3,29,.04,4.15.48,10.44,2.58,18.2h-24.69Zm49.05-62.9c-1.6-1.59-3.1-2.23-4.07-2.52-1.03-.31-3.1-.73-11.86,2.22-2.87.97-4.28,1.53-5,2-1.86,1.21-3.76,4.13-3.42,11.9l-1.76-22.68c.72-3.4,2.11-5.76,3.18-7.23,4.71-6.41,12.94-8.55,19-8,2.16.19,4.11.8,8,2,3.96,1.23,7.16,2.56,9.37,3.57-2.6,2.4-5.64,5.65-8.52,9.89-2.16,3.18-3.74,6.2-4.92,8.84Z"/>
  <path class="cls-1" d="m209.12,143c-9.29,0-16.27-2.21-20.91-6.63-8.06-7.67-7.1-18.95-6.97-20.32.31-3.28,1.29-5.98,2.76-10.04,1.65-4.55,2.61-7.11,5.01-9.4,1.07-1.02,2.93-2.47,8.14-4.06,6.52-1.98,11.93-2.24,15.17-2.37,5.78-.22,13.16-.32,21.84,0,.39,5.85.78,11.7,1.18,17.55-4.06-.96-7.57-1.19-10.18-1.19-4.95,0-8.37.85-13,2-3.62.9-5.43,1.51-7,3-2.01,1.9-4.14,5.59-3.15,8.46,2.41,6.95,21.75,4.78,26.86,2.34.87-.42,2.75-1.32,3.8-3.35.49-.94.73-2,.73-3.2l1.76,12.68c-.34,3.3-1.82,6.03-4.45,8.19-2.63,2.16-5.87,3.75-9.7,4.79-3.84,1.04-7.8,1.55-11.88,1.55Zm24.27-1.26c-.51-3.04-1.12-7.61-1.25-13.2-.11-5.21.24-9.35.85-16.54.71-8.37,1.2-10.32,1.15-15.46-.04-4.26-.43-7.74-.75-10.06.08-.85.52-6.08-3.25-9.94-3.44-3.53-8.05-3.54-9.15-3.54-4.26,0-5.85,2-12.85,4.54-3.45,1.25-6.38,1.97-8.35,2.39-1.69-2.39-3.92-5.14-6.8-7.93-2.64-2.55-5.21-4.55-7.48-6.1,1.2-1.37,3.19-3.41,6.05-5.3,6.74-4.46,13.55-4.98,23.43-5.6,6.6-.42,9.98-.6,14.15.54,5.58,1.53,9.38,4.29,13,7,5.16,3.87,7.96,5.96,10,10,.8,1.59,2.03,4.56,2.16,13.18.13,8.67-1.06,9.99-1.3,17.28-.38,11.2,2.22,13.62,2.15,26.54-.03,5.21-.48,9.46-.84,12.2h-20.91Zm-12.68-98.93l-14.61-12.01c4.32-1.49,6.69-3.62,8.05-5.26,1.2-1.45,1.43-2.29,4-7,.38-.69,2.39-4.38,4-7,1.66-2.7,4.2-6.4,7.97-10.56.8,1.19,2.1,2.89,4.03,4.56,2.08,1.79,3.53,2.36,6,4,1.58,1.05,3.77,2.67,6.18,5.05-1.87,1.14-4.56,3.02-7.18,5.95-2.58,2.89-2.29,3.66-5,7-3.5,4.31-5.29,4.64-9,9-2.14,2.51-3.58,4.8-4.44,6.27Z"/>
  <path class="cls-1" d="m306.12,109.24c2.07-3.7,4.64-8.84,6.88-15.24,2.77-7.92,3.13-12.36,6-23,1.15-4.28,2.8-9.89,5.1-16.44,2.82.72,6.53,1.38,10.9,1.44,4.89.06,9-.67,12.02-1.44-6.65,8.76-10.02,16.49-11.88,21.98-.47,1.39-2.03,7.08-5.15,18.46-1.6,5.83-2.39,8.83-3.85,13.54-.48,1.54-1.43,5.38-4,12-1.89,4.87-4.6,12-7.88,21.2h-16.29c-7.63-14.63-12.19-27.01-14.98-35.74-3.18-9.99-4.87-17.84-10-32-3.01-8.33-5.84-15.03-7.78-19.44,4.39-3.02,7.67-3.35,9.92-3.02,1.99.29,3.18,1.09,7,2,2.48.59,4.58.88,6,1.02.64,7.05,1.78,12.95,2.85,17.44.49,2.05,2.81,11.55,8.15,23.54,2.52,5.66,5.01,10.28,6.98,13.7Z"/>
  <path class="cls-1" d="m359.2,42.64c.47-2.69.83-5.74.95-9.1.19-5.36-.28-10.07-.95-13.91,2.54.87,6.31,1.84,10.95,1.91,5.19.08,9.38-1,12.07-1.91-2.26,2.84-2.89,5.28-3.07,6.91-.29,2.65.48,4.24,2,11,.49,2.18.85,3.97,1.07,5.1-2.54-.96-6.76-2.19-12.07-2.1-4.73.08-8.52,1.18-10.95,2.1Zm0,99.1c-.55-8.09-.35-14.67-.05-19.2.87-13.58,1.5-14.03,2-27,.53-13.76-.2-25.08-1-33-.33-3.3-.68-6.04-.95-7.98,2.55-1.1,4.56-1.17,5.95-1.02,2.77.3,3.43,1.53,7,2,2.09.27,3.82.11,5,0,2.05-.19,3.77-.59,5.07-.98-1.56,5.18-2.97,11.76-3.21,19.44-.14,4.41.23,5.39,1,18,.52,8.44.27,6.68,1,20,.5,9.14.77,12.84,1,20,.13,4.11.19,7.49.21,9.74h-23.01Z"/>
  <path class="cls-1" d="m396.91,74.22c-.32-3.31-.06-5.91.24-7.68.42-2.52.99-3.72,1-6,.02-2.56-.67-4.64-1.24-5.98,3.5.68,6.36.9,8.24.98,11.52.47,16.9-3,28-2,2.81.25,5.07.71,6.43,1.02.25,1.09.57,2.83.57,4.98.01,3.62-.87,5.27-1,9-.05,1.31-.01,3.26.43,5.68-1.3-.19-3.58-.49-6.43-.68-11.06-.73-16.47,1.18-29,1-1.6-.02-4.12-.09-7.24-.32Zm31.07,67.94c-3.12.1-11.73-.03-16.88-5.96-2.7-3.11-3.21-7.4-4.13-15.85-.28-2.62-1.29-12.75.17-27.8.49-5.01.68-4.77,1-9,.58-7.64.08-10.35,0-20-.11-12.64.69-13.65,0-21-.55-5.79-1.54-10.44-2.25-13.34,2.63.84,6.44,1.75,11.1,1.8,5.05.05,9.17-.92,11.91-1.8.13,9.32.07,21.95-.76,35.34-.32,5.09-.52,8.33-1,13-1.4,13.55-2.47,13.12-2,18,.81,8.46,4.39,13.58,4,18-.05.61-.33,2.88,1.02,4.68,3.14.59,6.27,1.18,9.41,1.76v22.17h-11.59Z"/>
  <path class="cls-1" d="m494.84,143c-11.98,0-21.25-3.32-27.8-9.95s-9.83-15.97-9.83-28.01c-.53-5.86-.32-10.73,0-14.19.79-8.51,1.26-13.66,4.94-18.31,1.74-2.2,2.44-2.07,7-7,4.46-4.83,4.07-5.26,6-7,6.87-6.18,17.09-5.43,19.69-5.24,2.85.21,6.01,1.22,12.31,3.24,8.02,2.56,12.02,3.84,15.49,6.59,1.4,1.11,6.06,4.9,8.51,11.41,1.21,3.21,1.28,5.49,1.31,16.31.01,3.71.02,8.62,0,14.45,0,11.98-3.28,21.26-9.83,27.84-6.55,6.58-15.82,9.87-27.8,9.87Zm1.31-19.46c11.12-.82,16.18-11.37,16.8-12.72,3.21-7,2.34-14.9-.8-20.28-1.31-2.25-1.25-1.03-10-10-4.6-4.72-5.77-6.24-8.15-6.54-4.22-.53-7.89,3.33-9.96,5.51-7.29,7.68-7.78,17.72-7.9,21.03-.18,5.2-.35,10.19,3,15,3.63,5.21,10.22,8.5,17,8Z"/>
  <path class="cls-1" d="m553.46,141.74c.52-13.26.66-23.84.69-31.2.06-16.92-.47-15.21,0-20,.46-4.62,1.33-9.94,0-17-.37-1.97-.68-2.82-1-5-.87-5.85-.31-10.75.31-13.98,1.79.13,4.46.38,7.69.98,2.72.5,3.56.82,5,1,2.36.3,5.81.16,10.32-1.98.2,2.59.46,6.38.68,10.98.52,10.9.82,17.71,0,26-.8,8.05-1.55,6.42-2,13-.53,7.75.42,11.37,1,23,.16,3.21.34,8.12.32,14.2h-23.01Zm50.39,0c-.75-6.97-.28-12.46.3-16.2.94-6.1,1.49-8.97,2-13,.69-5.46.77-13.39-2.3-23.63.05-.89.32-6.16-3.65-9.95-2.44-2.32-5.89-3.49-10.37-3.49s-7.55,1.19-9.87,3.57c-2.32,2.38-3.49,5.73-3.49,10.04l-1.76-19.32c.6-1.91,2.95-8.68,9.2-12.18,1.55-.87,3.53-1.98,6.25-2.05,2.99-.08,3.97,1.19,7,1,.82-.05,1.37-.23,1.8-.33,1.13-.26,9.9-2.29,15,1.46.68.5.45.49,4.2,5.86,4.05,5.82,4.12,5.54,5,7,3.67,6.06,3.69,12.63,3.71,18.29.02,5.32-.7,9.29-.86,10.17-1.24,7.09-1.89,19.48.86,42.74h-23.01Z"/>
  <path class="cls-1" d="m640.12,141.74v-34.08h3.38v34.08h-3.38Zm2.46-13.22v-3.14h7.27c1.05,0,1.86-.34,2.44-1.03s.87-1.65.87-2.88v-6.63c0-1.3-.29-2.29-.86-2.99s-1.39-1.04-2.45-1.04h-7.27v-3.14h7.1c1.45,0,2.69.28,3.7.84s1.79,1.38,2.33,2.44.81,2.36.81,3.89v6.68c0,1.48-.27,2.75-.81,3.8s-1.32,1.84-2.34,2.39-2.25.82-3.69.82h-7.1Z"/>
  <path class="cls-1" d="m665.74,142.09c-2.22,0-3.94-.62-5.16-1.85s-1.83-2.98-1.83-5.23v-11.06c0-2.22.61-3.93,1.83-5.14s2.94-1.82,5.16-1.82,3.94.61,5.16,1.82,1.83,2.93,1.83,5.14v11.13c0,2.22-.61,3.94-1.83,5.17s-2.94,1.84-5.16,1.84Zm-.02-3.14c1.16,0,2.05-.34,2.68-1.01s.95-1.62.95-2.86v-11.13c0-1.2-.32-2.14-.95-2.81s-1.53-1.01-2.68-1.01-2.02.34-2.65,1.01-.94,1.61-.94,2.81v11.13c0,1.23.31,2.19.94,2.86s1.51,1.01,2.65,1.01Z"/>
  <path class="cls-1" d="m677.41,141.74v-24.33h3.38v24.33h-3.38Zm11.13-21.61h-.16c-2.28,0-4.09.55-5.41,1.64s-2.05,2.62-2.18,4.57l-.49-4.69c.91-1.47,2.08-2.61,3.52-3.43s3.02-1.23,4.73-1.23v3.14Z"/>
  <path class="cls-1" d="m706.61,141.74l-6.89-34.08h3.56l5.6,30.23,5.6-30.23h3.56l-6.89,34.08h-4.55Z"/>
  <path class="cls-1" d="m721.36,112.37v-3.38h3.38v3.38h-3.38Zm0,29.37v-24.33h3.38v24.33h-3.38Z"/>
  <path class="cls-1" d="m730.38,141.74v-24.33h3.38v24.33h-3.38Zm11.48,0v-17.18c0-1.48-.34-2.59-1.01-3.33s-1.69-1.1-3.05-1.1-2.38.41-3.05,1.22-1.01,2.04-1.01,3.68l-.49-3.52c.56-1.52,1.33-2.65,2.3-3.4s2.13-1.12,3.49-1.12c2.08,0,3.63.63,4.65,1.89s1.54,3.15,1.54,5.68v17.18h-3.38Z"/>
  <path class="cls-1" d="m753,112.96l-2.46-1.66,5.77-8.32,2.91,2.11-6.21,7.88Zm-2.11,28.78v-24.33h3.38v24.33h-3.38Z"/>
  <path class="cls-1" d="m766.8,142.09c-2.34,0-4.16-.64-5.44-1.91s-1.92-3.07-1.92-5.38v-10.17c0-2.42.64-4.3,1.92-5.64s3.09-2,5.44-2,4.18.67,5.47,2,1.93,3.23,1.93,5.68v.19h-3.21v-.19c0-1.44-.36-2.55-1.08-3.35s-1.73-1.2-3.05-1.2-2.28.39-2.99,1.17-1.07,1.89-1.07,3.33v10.17c0,1.33.36,2.35,1.07,3.07s1.71,1.08,2.99,1.08,2.33-.37,3.05-1.11,1.08-1.79,1.08-3.13v-.19h3.26v.19c0,2.34-.65,4.16-1.95,5.45s-3.13,1.93-5.51,1.93Z"/>
  <path class="cls-1" d="m778.5,112.37v-3.38h3.38v3.38h-3.38Zm0,29.37v-24.33h3.38v24.33h-3.38Z"/>
  <path class="cls-1" d="m790.87,117.41v17.84c0,1.17.34,2.08,1.01,2.73s1.62.97,2.86.97,2.24-.32,2.87-.95.95-1.58.95-2.85l.33,3.16c-.48,1.27-1.18,2.21-2.07,2.84s-2.01.94-3.34.94c-1.89,0-3.36-.6-4.39-1.79s-1.56-2.88-1.56-5.05v-17.84h3.35Zm7.69,24.33v-24.33h3.35v24.33h-3.35Z"/>
  <path class="cls-1" d="m813.25,142.09c-2.45,0-4.29-.61-5.52-1.82s-1.84-3.04-1.84-5.47h3.12c0,1.47.35,2.57,1.05,3.3s1.77,1.1,3.19,1.1,2.48-.35,3.19-1.05,1.05-1.76,1.05-3.16c0-.83-.2-1.48-.59-1.97s-.9-.88-1.54-1.17-1.33-.55-2.1-.77c-.8-.23-1.61-.5-2.45-.79s-1.6-.67-2.3-1.15-1.26-1.12-1.69-1.95-.64-1.89-.64-3.2c0-2.34.57-4.1,1.71-5.26s2.86-1.75,5.16-1.75,4.02.56,5.16,1.69,1.71,2.83,1.71,5.11h-3.12c0-1.31-.31-2.29-.94-2.94s-1.56-.97-2.81-.97-2.19.34-2.81,1.01-.94,1.68-.94,3.02c0,.92.22,1.65.66,2.18s1.02.94,1.73,1.23,1.48.54,2.3.76c.78.2,1.56.44,2.34.71s1.49.65,2.13,1.12,1.16,1.12,1.55,1.92.59,1.86.59,3.15c0,2.38-.61,4.15-1.83,5.33s-3.06,1.77-5.53,1.77Z"/>
</svg>