<?xml version="1.0" encoding="UTF-8"?>
<svg id="a" data-name="Camada 1" xmlns="http://www.w3.org/2000/svg" viewBox="0 0 235 236">
  <path d="m114.16,4.34l-2.08,16.19c3.53.45,6.79,1.24,9.99,2.4,9.33,3.4,13.23,8.23,19.68,16.24,7.57,9.39,16.99,21.08,36.93,30.99,5.01,2.49,9.23,4.15,12.83,5.34,3.03,1,4.53,1.32,8.93,2.49,10.05,2.69,15.08,4.04,16.29,4.82,10.54,6.76,11.55,32.97,1.37,42.69-1.65,1.57-4.2,3.3-11.72,9.9-3.85,3.38-5.78,5.08-6.63,6.11-5.3,6.46-4.1,12.01-6.74,19.16-1.41,3.82-3.02,5.7-14.57,17.33-8.54,8.6-16,15.97-22.01,21.86-5.14,5.17-15.92,14.57-32.41,19.17-6.09,1.7-15.98,4.34-27.92,1.95-7.47-1.49-17.31-9.01-36.67-23.99-15.28-11.82-20.93-17.08-21.51-24.71-.47-6.24,1.56-12.14,1.56-12.14,2.31-6.72,5.67-8.41,6.11-14.38.2-2.77-.43-4.88-1.58-9.15-3.84-14.21-11.82-20.98-17.64-25.92-4.92-4.17-6.66-7.02-7.16-7.84-3.74-6.02-2.45-14.16,4.23-31.18,8.72-22.23,13.09-33.35,20.04-38.57,7.48-5.61,17.21-6.96,36.63-9.85,13.34-1.98,24.45-2.57,31.98-2.74.69-5.4,1.39-10.79,2.08-16.19Zm0,0c-4.65-2.36-13.11-4.85-37.2,2.91-21.18,6.82-31.77,10.23-39.37,18.25-10.44,11.02-5.61,16.8-18.39,47.01-10.43,24.67-16.72,28.07-14.47,37.91,3.1,13.59,19.04,13.9,23.51,30.45,3.46,12.79-2.14,18.39-.29,34.25,0,0,0,0,0,0,2.13,15.52,9.43,28.61,14.73,34.81,4.86,5.68,21.28,9.83,53.93,17.9,19.48,4.82,29.27,7.22,32.03,6.86,30.04-3.86,51.56-39.78,53.46-42.5,5.77-8.22,7.65-13.35,16.96-25.25,16.15-20.64,21.81-19.67,27.95-30.69,11.33-20.36,7.27-51.17-8.54-66.93-1.99-1.98-3.78-3.31-5.58-4.29-11.88-6.46-21.99-8.64-26.94-9.49-30.31-5.21-57.78-37.34-60.6-40.7-3.7-4.41-5.96-7.85-11.19-10.5Z" style="fill: #4b334a; stroke-width: 0px;"/>
  <path d="m127.44,59.34c2.09.67,3.98,1.52,5.78,2.58,5.27,3.11,7.09,6.48,10.1,12.05,3.53,6.54,7.92,14.68,18.89,22.94,2.75,2.07,5.13,3.55,7.17,4.68,1.72.95,2.6,1.31,5.13,2.52,0,0,4.36,2.08,9.33,4.75,7.52,4.05,14.34,7.72,14.35,11.96,0,4.19-6.64,7.77-18.32,14.06-.24.13-3.7,1.99-8.22,4.68-3.05,1.82-4.56,2.75-4.71,2.96-2.2,3.08.26,6.16-1.17,12.91-.18.85-.56,2.59-1.46,4.54-.62,1.33-2.77,5.54-9.32,9.51-5.65,3.43-7.26,2.26-18.39,6.59-5.58,2.17-5.41,2.56-8.63,3.48-6.69,1.91-11.08,1.29-15.65,1.42-15.69.47-19.49,9.78-25.7,6.54-7.2-3.75-1.28-13.5-10.96-27.16-4.9-6.92-10.97-10.86-10.25-17.39.42-3.83,2.31-7.18,2.31-7.18,2.16-3.81,4.38-4.46,5.32-8.03.44-1.65.29-3.01.07-5.72-.73-9.04-4.8-14.04-7.77-17.69-2.11-2.59-2.96-4.36-3.31-5.18,0,0-.07-.18-.15-.37-5.73-14.74-1.69-27.39-1.69-27.39.99-3.09,4.83-15.11,14.87-18.99,8.2-3.17,13.63,1.77,32.68,4.99,8.35,1.41,15.26,1.81,19.69,1.94Zm3.08-9.58c-6.35-4.86-14-3.02-22.87-2.42-22.86,1.53-25.27-7.24-37.56-2.79-15.02,5.44-20.81,21.95-21.23,23.2-5.09,15.22,1.42,29.6,3.41,33.99,4.56,10.07,10.1,12.13,10.82,21.1.65,8.14-3.36,10.9-4.03,20.72,0,0,0,0,0,0-.21,5.73.56,13.13,5.01,22.75,6.8,14.72,12.73,27.55,24.54,30.61,3.66.95,3.96-.07,24.76-5.93,13.5-3.8,31.11-8.37,41.71-13.97,4.02-2.12,8.56-5.21,9.36-5.75,3.93-2.68,5.89-4.02,6.72-5.34,3.18-5.07-.79-9.58,1.37-15.03,1.72-4.34,6.35-4.78,11.53-8.5,16.51-11.87,24.77-17.8,24.3-22.06-.67-6-11.71-7.12-21.94-19.46-.66-.8-1.37-1.99-2.9-3.22-6.47-5.25-12.35-7.71-15.26-8.78-17.78-6.57-30.81-29.13-32.14-31.48-1.75-3.09-2.73-5.43-5.6-7.62Z" style="fill: #4b334a; stroke-width: 0px;"/>
  <path d="m124.1,97.73c.92.39,1.74.86,2.52,1.42,2.27,1.64,2.95,3.25,4.08,5.91,1.33,3.12,2.98,7.01,7.62,11.23,1.16,1.06,2.18,1.83,3.06,2.43.74.5,1.13.7,2.23,1.36,0,0,1.89,1.13,4.04,2.56,4.01,2.66,6.19,4.5,6.02,6.05-.41,3.63-14.1,3.42-15.13,8.54-.2.99-.17,2.89-1.08,5.82-.12.38-.36,1.16-.86,2-.34.58-1.49,2.4-4.64,3.93-2.71,1.32-3.4.72-8.64,2.22-2.63.75-2.57.93-4.07,1.22-3.12.58-5.09.11-7.18-.02-7.15-.45-9.28,3.62-11.96,1.88-3.11-2.01-.01-6.19-3.83-12.82-1.93-3.35-4.53-5.4-3.93-8.34.35-1.72,1.36-3.17,1.36-3.17,1.14-1.64,2.18-1.84,2.76-3.43.27-.73.26-1.36.27-2.6.05-4.14-1.59-6.59-2.78-8.37-.85-1.27-1.16-2.11-1.29-2.5-.03-.09-.05-.15-.05-.17-.76-2.66-6.73-12.93-5.2-18.96.8-3.17,3.97-6.27,7.32-6.98,5.87-1.23,9.29,5.51,20.49,9.06,3.59,1.14,6.73,1.55,8.87,1.72Zm1.81-4.22c-3.08-2.85-7.47-1.97-10.3-2.07-11.43-.39-14.7-17.42-22.8-16.85-5.75.4-10.85,9.48-11.49,16.74-.85,9.57,5.62,20.51,6.8,22.5,1.82,3.07,4.08,5.78,4.03,10.05-.05,3.73-1.99,4.82-2.71,9.25,0,0,0,0,0,0-.34,2.59-.3,6,1.31,10.56,2.47,6.98,4.62,13.07,9.86,14.96.13.05.02,0,.8.21,5.74,1.55,9.85,3.12,11.49,3.73,8.91,3.35,13.37,5.03,15.17,5.05,6.47.07,14.18-3.46,14.98-8.02.59-3.37-3.04-4.75-3.59-11.56-.35-4.36,1-6.26,1.26-6.78.97-1.9,3.09-1.9,5.6-3.38,8.01-4.7,12.02-7.04,11.98-9-.05-2.76-5.02-3.73-9.15-9.78-.27-.39-.54-.96-1.18-1.59-2.72-2.66-5.29-4.03-6.56-4.64-7.81-3.74-12.78-14.55-13.28-15.68-.66-1.48-1.01-2.58-2.22-3.7Z" style="fill: #4b334a; stroke-width: 0px;"/>
</svg>